<?xml version="1.0" ?>
<!-- Uploaded to: SVG Repo, www.svgrepo.com, Generator: SVG Repo Mixer Tools -->
<svg fill="#000000" width="800px" height="800px" viewBox="0 0 100 100" enable-background="new 0 0 100 100" id="Layer_1" version="1.1" xml:space="preserve" xmlns="http://www.w3.org/2000/svg" xmlns:xlink="http://www.w3.org/1999/xlink">
<g>
<path d="M89.81,66.856V40.188c3.779-2.09,6.1-5.994,6.1-10.336c0-3.881-1.911-7.52-5.111-9.732   c-0.307-0.212-0.704-0.235-1.033-0.063c-0.329,0.173-0.536,0.514-0.536,0.886v7.56l-5.16,3.735l-5.15-3.734v-7.561   c0-0.371-0.206-0.713-0.535-0.886c-0.329-0.172-0.727-0.148-1.032,0.063c-3.201,2.206-5.112,5.845-5.112,9.733   c0,0.989,0.129,1.955,0.367,2.889c-1.211,0.221-2.292,0.818-3.118,1.668c-0.525-1.043-1.594-1.767-2.839-1.767h-4.441V13.897   c0-0.553-0.448-1-1-1H12.721c-0.552,0-1,0.447-1,1v18.745H7.28c-1.759,0-3.19,1.432-3.19,3.19v35.38   c0,1.759,1.431,3.189,3.19,3.189h9.018v8.87c0,0.553,0.448,1,1,1h39.334c0.552,0,1-0.447,1-1v-8.87h9.018   c1.245,0,2.314-0.724,2.84-1.766c0.825,0.85,1.906,1.446,3.118,1.667c-0.238,0.935-0.367,1.901-0.367,2.889   c0,3.889,1.911,7.527,5.112,9.733c0.306,0.211,0.704,0.233,1.032,0.063c0.329-0.173,0.535-0.515,0.535-0.886v-7.561l5.15-3.734   l5.16,3.735v7.56c0,0.372,0.207,0.713,0.536,0.886c0.146,0.076,0.305,0.114,0.464,0.114c0.2,0,0.398-0.06,0.569-0.178   c3.201-2.213,5.111-5.852,5.111-9.732C95.91,72.851,93.589,68.946,89.81,66.856z M60.209,32.643h-2.876V14.897h2.876V32.643z    M18.549,32.643V14.897h36.783v17.745H18.549z M13.721,14.897h2.829v17.745h-2.829V14.897z M18.298,82.272v-8.86   c0-0.003,0.002-0.006,0.002-0.01s-0.002-0.006-0.002-0.01v-3.995h37.334v3.995c0,0.003-0.002,0.006-0.002,0.01   s0.002,0.006,0.002,0.01v8.86H18.298z M67.84,71.213c0,0.656-0.534,1.189-1.19,1.189h-9.018v-4.005c0-0.553-0.448-1-1-1H17.298   c-0.552,0-1,0.447-1,1v4.005H7.28c-0.656,0-1.19-0.533-1.19-1.189v-35.38c0-0.656,0.534-1.19,1.19-1.19h5.417   c0.009,0,0.016,0.005,0.024,0.005h48.488c0.009,0,0.016-0.005,0.024-0.005h5.417c0.656,0,1.19,0.534,1.19,1.19v2.63v30.119V71.213z    M69.84,68.582V38.463c0-1.977,1.505-3.607,3.427-3.801c0.024,0.054,0.053,0.104,0.077,0.157c0.061,0.133,0.127,0.262,0.193,0.392   c0.086,0.17,0.174,0.338,0.268,0.503c0.073,0.128,0.148,0.252,0.226,0.377c0.099,0.16,0.202,0.317,0.308,0.472   c0.083,0.12,0.167,0.239,0.254,0.356c0.113,0.151,0.23,0.299,0.35,0.444c0.092,0.111,0.183,0.222,0.279,0.33   c0.127,0.143,0.26,0.281,0.394,0.418c0.098,0.1,0.195,0.202,0.297,0.299c0.145,0.138,0.296,0.268,0.448,0.398   c0.101,0.087,0.199,0.176,0.303,0.259c0.173,0.139,0.354,0.268,0.535,0.397c0.091,0.065,0.178,0.134,0.271,0.197   c0.278,0.187,0.565,0.364,0.86,0.528v26.668c-0.296,0.164-0.582,0.341-0.86,0.528c-0.093,0.063-0.181,0.132-0.272,0.197   c-0.181,0.129-0.362,0.258-0.534,0.397c-0.105,0.084-0.204,0.174-0.305,0.261c-0.15,0.129-0.3,0.258-0.444,0.395   c-0.104,0.099-0.203,0.203-0.303,0.305c-0.131,0.134-0.261,0.269-0.386,0.409c-0.099,0.111-0.193,0.226-0.288,0.341   c-0.116,0.141-0.229,0.283-0.339,0.43c-0.091,0.122-0.178,0.245-0.264,0.37c-0.103,0.149-0.201,0.3-0.297,0.455   c-0.081,0.129-0.159,0.26-0.235,0.392c-0.091,0.16-0.176,0.323-0.26,0.487c-0.068,0.133-0.136,0.266-0.198,0.402   c-0.025,0.053-0.054,0.104-0.078,0.157C71.345,72.189,69.84,70.559,69.84,68.582z M91.23,83.932v-5.899   c0-0.32-0.154-0.622-0.414-0.81l-6.16-4.46c-0.35-0.254-0.824-0.254-1.173,0l-6.15,4.46c-0.26,0.188-0.413,0.489-0.413,0.81v5.903   c-1.704-1.804-2.68-4.21-2.68-6.743c0-1.193,0.21-2.348,0.627-3.44c0.869-2.33,2.656-4.295,4.901-5.391   c0.344-0.167,0.562-0.517,0.562-0.898V39.582c0-0.382-0.218-0.731-0.562-0.898c-2.246-1.096-4.032-3.061-4.904-5.397   c-0.414-1.086-0.624-2.24-0.624-3.434c0-2.533,0.976-4.939,2.68-6.743v5.903c0,0.32,0.153,0.621,0.413,0.81l6.15,4.46   c0.349,0.254,0.823,0.254,1.173,0l6.16-4.46c0.26-0.188,0.414-0.489,0.414-0.81v-5.899c1.704,1.808,2.68,4.212,2.68,6.739   c0,3.781-2.122,7.165-5.538,8.831c-0.344,0.167-0.562,0.516-0.562,0.898v27.881c0,0.383,0.218,0.731,0.562,0.898   c3.416,1.666,5.538,5.05,5.538,8.831C93.91,79.72,92.934,82.124,91.23,83.932z"/>
<path d="M84.038,40.147c-1.476,0-2.677,1.201-2.677,2.677v21.396c0,1.476,1.201,2.677,2.677,2.677s2.677-1.201,2.677-2.677V42.824   C86.715,41.349,85.514,40.147,84.038,40.147z M84.715,64.221c0,0.373-0.304,0.677-0.677,0.677c-0.374,0-0.677-0.304-0.677-0.677   V42.824c0-0.373,0.304-0.677,0.677-0.677c0.373,0,0.677,0.304,0.677,0.677V64.221z"/>
<path d="M38.477,40.355c-0.179-0.31-0.509-0.5-0.866-0.5s-0.688,0.19-0.866,0.5l-11.74,20.334c-0.178,0.31-0.178,0.69,0,1   c0.179,0.31,0.509,0.5,0.866,0.5H49.35c0.357,0,0.688-0.19,0.866-0.5c0.178-0.31,0.178-0.69,0-1L38.477,40.355z M27.603,60.189   l10.008-17.334l10.007,17.334H27.603z"/>
<path d="M36.611,47.748v6.387c0,0.553,0.448,1,1,1s1-0.447,1-1v-6.387c0-0.553-0.448-1-1-1S36.611,47.195,36.611,47.748z"/>
<path d="M37.611,55.883c-0.552,0-1,0.447-1,1V57.7c0,0.553,0.448,1,1,1s1-0.447,1-1v-0.817   C38.611,56.33,38.163,55.883,37.611,55.883z"/>
<path d="M11.715,37.772h-1.75c-0.552,0-1,0.447-1,1s0.448,1,1,1h1.75c0.552,0,1-0.447,1-1S12.267,37.772,11.715,37.772z"/>
<path d="M17.298,37.772h-1.75c-0.552,0-1,0.447-1,1s0.448,1,1,1h1.75c0.552,0,1-0.447,1-1S17.85,37.772,17.298,37.772z"/>
<path d="M22.881,37.772h-1.75c-0.552,0-1,0.447-1,1s0.448,1,1,1h1.75c0.552,0,1-0.447,1-1S23.433,37.772,22.881,37.772z"/>
</g>
</svg>